<svg fill="none" height="16" viewBox="0 0 16 16" width="16" xmlns="http://www.w3.org/2000/svg" xmlns:xlink="http://www.w3.org/1999/xlink"><linearGradient id="a" gradientUnits="userSpaceOnUse" x1="7.2133" x2="8.88345" y1="-.21875" y2="15.6142"><stop offset="0" stop-color="#fcf84a"/><stop offset="1" stop-color="#07c3f2"/></linearGradient><linearGradient id="b" gradientUnits="userSpaceOnUse" x1="1.08886" x2="16.0672" y1=".023692" y2="7.12969"><stop offset=".0006" stop-color="#3bea62"/><stop offset=".99766" stop-color="#087cfa"/></linearGradient><linearGradient id="c" gradientUnits="userSpaceOnUse" x1="4.00022" x2="17.5384" y1="15.75" y2="4.93705"><stop offset="0" stop-color="#009ae5"/><stop offset="1" stop-color="#293896"/></linearGradient><g clip-rule="evenodd" fill-rule="evenodd"><path d="m2.89722 16c5.69549-.4981 10.69068-4.0003 13.10268-9.18348-3.0133-4.29967-7.91398-6.81652-13.10218-6.81652-.46512 0-.9324.0202218-1.401.0611967-2.412021 5.1832433-1.882932 11.2537033 1.4005 15.9388033z" fill="url(#a)"/><path d="m1.51221.0613536s5.07301 1.7900064 8.41873 6.7553164h6.06896c-2.9991-4.29967-7.89863-6.81651741-13.0867-6.81651741-.46511 0-.93242.02022401-1.40099.06120101z" fill="url(#b)"/><path d="m9.93198 6.81667c-.73145 4.83763-7.03452 9.18333-7.03452 9.18333 5.73024-.5439 10.75854-3.979 13.10274-9.18506z" fill="url(#c)"/></g></svg>